<?xml version="1.0" encoding="iso-8859-1"?>
<!-- Uploaded to: SVG Repo, www.svgrepo.com, Generator: SVG Repo Mixer Tools -->
<!DOCTYPE svg PUBLIC "-//W3C//DTD SVG 1.1//EN" "http://www.w3.org/Graphics/SVG/1.1/DTD/svg11.dtd">
<svg fill="#000000" version="1.1" id="Capa_1" xmlns="http://www.w3.org/2000/svg" xmlns:xlink="http://www.w3.org/1999/xlink" 
	 width="800px" height="800px" viewBox="0 0 471.023 471.023"
	 xml:space="preserve">
<g>
	<g>
		<path d="M471.023,469.238c-26.971-66.567-113.018-98.735-173.361-113.691c-4.629-6.632-8.188-16.935-3.764-51.135
			c19.381,36.132,65.266,26.072,65.266,26.072c-6.877-4.904-8.841-14.719,4.896-28.456c13.738-13.737,35.326-25.516,25.516-37.289
			c-9.814-11.778-45.14-7.851-7.851-49.069c37.289-41.214,45.14,18.645,0-124.296C336.586-51.574,228.642,19.41,228.642,19.41
			C81.447-37.505,119.718,85.158,91.259,99.877c-28.457,14.719-13.737,57.896,9.94,83.102c23.678,25.209,2.817,33.672-13.864,49.372
			c-16.683,15.706-9.814,47.107,27.475,52.012c37.289,4.909-68.579,12.527,8.833,49.067c7.654,3.61,35.237-1.15,65.85-8.235
			c0.563,14.038-1.062,21.563-3.526,26.633C121.8,364.836,16.571,396.523,0,469.238h235.511H471.023z M188.275,278.52
			c-1.311-1.302-2.607-2.612-3.896-3.923c-7.867-7.979-15.356-15.97-21.604-22.947l-7.834-42.873
			c-10-59.027-7.306-102.58,7.961-129.814c1.266,4.178,5.44,8.958,16.675,12.405c24.533,7.52,72.616-10.143,80.467,21.257
			c7.851,31.402,13.737,42.196,26.493,44.16c12.76,1.961,24.533-10.428,24.533,26.188c0,15.647,8.601,13.296,18.446,5.504
			c-0.821,6.546-1.787,13.259-2.974,20.246l-7.838,42.919c-6.248,6.969-13.737,14.96-21.604,22.947
			c-1.286,1.31-2.589,2.62-3.891,3.927c-1.318,1.318-2.653,2.621-3.987,3.923c-8.877,8.692-17.85,16.943-25.836,23.412
			c-9.767,7.935-18.038,13.221-22.639,13.221c-2.477,0-6.007-1.535-10.255-4.156c-10.119-6.256-24.325-18.847-38.236-32.477
			C190.928,281.145,189.594,279.842,188.275,278.52z M169.765,390.404c0-7.182,3.565-14.311,10.307-20.614l0.84-0.79
			c1.663-1.479,3.519-2.913,5.512-4.268l1.176-1.19c2.817-3.551,5.677-7.137,7.574-13.529c1.737-5.818,2.641-14.086,2.028-26.649
			c-0.367-7.605-1.302-16.799-2.974-28.096c8.871,8.355,18.083,16.351,26.383,22.237c8,5.683,15.128,9.417,20.129,9.417
			c9.045,0,25.022-12.062,40.691-26.272c1.947-1.771,3.896-3.574,5.811-5.39c-0.196,1.318-0.36,2.561-0.537,3.831
			c-4.26,30.688-2.812,45.231,0.706,54.004c1.871,4.669,4.315,7.751,6.765,10.824l0.865,0.806c2.076,1.41,3.972,2.881,5.65,4.384
			l0.722,0.665c6.729,6.304,10.295,13.434,10.295,20.618c0,22.186-31.839,40.23-70.976,40.23
			C201.6,430.622,169.765,412.592,169.765,390.404z"/>
	</g>
</g>
</svg>