<?xml version="1.0" encoding="iso-8859-1"?>
<!-- Uploaded to: SVG Repo, www.svgrepo.com, Generator: SVG Repo Mixer Tools -->
<svg fill="#000000" height="800px" width="800px" version="1.1" id="Layer_1" xmlns="http://www.w3.org/2000/svg" xmlns:xlink="http://www.w3.org/1999/xlink" 
	 viewBox="0 0 512 512" xml:space="preserve">
<g>
	<g>
		<g>
			<path d="M495.418,393.138H157.72l4.25-14.242h295.205c30.23,0,54.824-24.593,54.824-54.822c0-27.602-20.508-50.494-47.086-54.267
				v-89.728c0-49.465-40.242-89.707-89.74-89.707l-24.873,0.049c-10.218-0.484-20.059,2.937-27.749,9.709l-52.133,45.843
				l-64.957,20.172c-9.983,3.107-18.16,9.916-23.021,19.173c-4.861,9.255-5.827,19.85-2.719,29.831
				c5.684,18.261,23.596,29.393,41.939,27.234c-3.599,3.042-5.891,7.583-5.891,12.665c0,6.036,3.236,11.302,8.055,14.203h-35.943
				c4.821-2.901,8.055-8.167,8.055-14.203c0-9.158-7.424-16.582-16.582-16.582h-18.511c-9.158,0-16.582,7.424-16.582,16.582
				c0,6.063,3.266,11.352,8.123,14.244c-19.573,0.738-37.103,11.783-46.253,28.924c-7.003-16.98-23.727-28.965-43.202-28.965H46.718
				C20.957,269.25,0,290.208,0,315.969v16.21c0,25.759,20.957,46.717,46.718,46.717h16.212c6.565,0,12.814-1.367,18.489-3.823
				l-3.639,12.192l-5.376,6.291c-1.181-0.266-2.403-0.42-3.665-0.42H16.582C7.424,393.137,0,400.561,0,409.719
				S7.424,426.3,16.582,426.3h27.845l-11.78,13.787c-6.795,7.946-10.092,18.061-9.28,28.484c0.813,10.423,5.636,19.906,13.578,26.7
				c7.155,6.121,16.068,9.404,25.384,9.403c1.029,0,2.064-0.04,3.101-0.12c10.423-0.811,19.906-5.633,26.711-13.587l49.453-57.884
				c0.601-0.702,1.094-1.348,1.498-1.893c1.356-1.634,2.561-3.358,3.623-5.159c0.943,0.167,1.908,0.27,2.898,0.27h345.804
				c9.158,0,16.582-7.424,16.582-16.582C511.999,400.562,504.576,393.138,495.418,393.138z M76.482,332.179
				c0,7.473-6.08,13.553-13.553,13.553H46.718c-7.474,0-13.554-6.08-13.554-13.553v-16.21c0-7.474,6.08-13.555,13.554-13.555h16.212
				c7.473,0,13.553,6.081,13.553,13.555V332.179z M219.994,208.913c-0.378,0.093-0.752,0.195-1.121,0.31
				c-3.145,0.981-6.507-0.784-7.485-3.932c-0.64-2.056-0.016-3.737,0.415-4.555c0.43-0.818,1.458-2.286,3.505-2.924l68.324-21.217
				c2.226-0.691,4.281-1.844,6.032-3.384l54.797-48.186c1.618-1.423,3.415-1.537,4.332-1.477c0.365,0.023,26.415-0.015,26.415-0.015
				c31.178,0,56.543,25.365,56.543,56.543v89.172H348.86V183.51c0-6.219-3.479-11.915-9.013-14.755
				c-5.535-2.839-12.19-2.342-17.242,1.286c-12.272,8.813-27.1,19.172-32.003,22.216L219.994,208.913z M250.864,238.465h-11.688
				l61.165-14.43c0.377-0.09,0.751-0.191,1.12-0.306c1.74-0.541,3.628-1.129,14.235-8.292v53.813h-56.305
				c4.821-2.901,8.055-8.167,8.055-14.203C267.446,245.89,260.022,238.465,250.864,238.465z M151.75,345.554
				c-8.041-0.994-15.617,3.954-17.932,11.713l-15.116,50.644c-0.237,0.797-0.642,1.534-1.206,2.191
				c-0.284,0.328-0.574,0.694-0.829,1.045c-0.103,0.14-0.203,0.282-0.311,0.421l-49.421,57.846c-2.142,2.506-5.923,2.799-8.43,0.657
				c-1.636-1.401-2.002-3.155-2.073-4.077c-0.072-0.922,0.017-2.712,1.423-4.356l47.417-55.497c1.502-1.76,2.621-3.813,3.282-6.029
				l24.067-80.631c0.14-0.474,0.361-0.951,0.677-1.457c0.462-0.744,0.866-1.523,1.205-2.33c3.39-8.067,11.233-13.279,19.98-13.279
				h177.795h116.056h8.844c11.943,0,21.66,9.717,21.66,21.66c0,11.942-9.717,21.658-21.66,21.658H154.481
				C153.621,345.735,152.727,345.675,151.75,345.554z"/>
			<path d="M233.661,108.863c9.184,9.809,21.635,14.766,34.118,14.766c11.446,0,22.918-4.17,31.915-12.592l11.834-11.078
				c0.001,0,0.001,0,0.001-0.001c18.804-17.606,19.78-47.226,2.177-66.031l-11.079-11.834
				c-17.603-18.804-47.227-19.783-66.032-2.177l-11.835,11.079c-18.805,17.607-19.781,47.23-2.176,66.032L233.661,108.863z
				 M247.423,55.204l11.834-11.078c2.61-2.443,5.937-3.652,9.259-3.652c3.621,0,7.235,1.439,9.899,4.285l11.079,11.833
				c5.106,5.455,4.823,14.049-0.631,19.158l-11.834,11.078c-5.459,5.107-14.052,4.824-19.159-0.629l-11.078-11.835
				C241.684,68.908,241.968,60.313,247.423,55.204z"/>
			<path d="M94.768,151.476c3.136,5.073,8.563,7.863,14.119,7.863c2.975,0,5.987-0.802,8.704-2.481
				c7.789-4.815,10.2-15.034,5.383-22.823c-3.616-5.847-1.863-14.053,1.454-26.873c3.564-13.774,7.998-30.916-1.293-46.593
				c-4.668-7.876-14.836-10.479-22.719-5.809c-7.878,4.669-10.479,14.841-5.809,22.719c2.26,3.812-0.051,12.74-2.284,21.376
				C88.367,114.142,83.444,133.165,94.768,151.476z"/>
			<path d="M147.855,151.474c3.136,5.073,8.564,7.864,14.12,7.864c2.975,0,5.987-0.802,8.703-2.48
				c7.79-4.815,10.201-15.035,5.385-22.823c-3.616-5.848-1.864-14.054,1.453-26.875c3.564-13.773,7.998-30.915-1.292-46.591
				c-4.667-7.876-14.841-10.481-22.719-5.811c-7.879,4.669-10.48,14.841-5.811,22.719c2.261,3.813-0.05,12.742-2.283,21.377
				C141.457,114.142,136.535,133.165,147.855,151.474z"/>
		</g>
	</g>
</g>
</svg>